<svg width="211" height="43" viewBox="0 0 211 43" fill="none" xmlns="http://www.w3.org/2000/svg">
<g clip-path="url(#clip0_108775_3093)">
<path d="M24.8708 1.25319C25.5605 1.54928 26.2601 1.79 26.8994 2.14057C27.6964 2.5776 28.4548 3.0888 29.2095 3.59814C30.0157 4.14228 30.6997 4.83697 31.3359 5.56136C32.1979 6.5428 32.8872 7.64407 33.3804 8.8661C33.6948 9.64493 33.9119 10.4471 34.069 11.2661C34.1433 11.6535 34.1679 12.0535 34.1803 12.4488C34.1982 13.0264 34.207 13.606 34.1785 14.1827C34.151 14.7399 34.0876 15.2968 34.0101 15.8497C33.9314 16.4112 33.8528 16.9772 33.708 17.5237C33.5188 18.2384 33.2954 18.9477 33.029 19.6371C32.7963 20.2394 32.5148 20.8283 32.1979 21.3911C31.8625 21.987 31.4571 22.5433 31.0874 23.1202C30.7433 23.6573 30.3704 24.1804 30.0795 24.7454C29.9095 25.0755 29.8454 25.471 29.7882 25.8454C29.7216 26.2819 29.709 26.7272 29.6828 27.1693C29.6475 27.767 29.5874 28.366 29.6013 28.9629C29.6154 29.5664 29.7076 30.168 29.764 30.7705C29.7734 30.8714 29.7676 30.9739 29.7802 31.0743C29.8629 31.7363 29.9368 32.3997 30.0372 33.0591C30.1214 33.6122 30.2377 34.1605 30.3398 34.711C30.3739 34.8945 30.3984 35.0808 30.4485 35.2598C30.4611 35.3049 30.559 35.3592 30.6119 35.3538C30.7973 35.3347 30.8807 35.4034 30.918 35.5868C30.9194 35.5937 30.9209 35.6005 30.9223 35.6073C31.0079 36.0129 31.4345 36.2137 31.8441 36.1499V36.1499C31.9376 36.1354 32.0914 36.1705 32.1366 36.2377C32.4407 36.6902 32.7264 37.1552 33.01 37.6211C33.0823 37.7399 33.0312 37.83 32.8942 37.8663C31.9306 38.122 30.9666 38.3767 30.0036 38.6348C29.4243 38.79 28.8445 38.9443 28.2691 39.113C28.0838 39.1673 27.992 39.1328 28.0029 38.9349C28.0326 38.3917 28.0636 37.8483 28.1082 37.3062C28.1136 37.2411 28.1945 37.1584 28.2608 37.1271C28.4152 37.0542 28.5802 37.0015 28.7445 36.9522C28.9207 36.8993 28.9529 36.7823 28.9114 36.6248C28.8677 36.4591 28.8187 36.2948 28.7768 36.1287C28.7411 35.9872 28.7486 35.8691 28.9234 35.8154C29.1947 35.7319 29.2569 35.6198 29.2031 35.3506C29.0582 34.6264 28.8909 33.9058 28.7744 33.1771C28.6741 32.5492 28.6305 31.9122 28.5638 31.279C28.5052 30.7236 28.4466 30.1681 28.394 29.6121C28.3778 29.4415 28.3777 29.2691 28.3769 29.0975C28.3747 28.66 28.3786 28.2225 28.3759 27.785C28.3693 26.7285 28.5145 25.6879 28.7752 24.6695C28.9405 24.0236 29.297 23.4544 29.6927 22.9168C30.4571 21.8784 31.181 20.8105 31.6805 19.6179C31.9987 18.8582 32.258 18.07 32.4867 17.2781C32.6587 16.6825 32.7971 16.0655 32.8485 15.4496C32.9314 14.4575 33.0065 13.4534 32.9412 12.4638C32.8855 11.6189 32.6708 10.7757 32.4478 9.95307C32.2056 9.05959 31.7302 8.26259 31.2195 7.49258C30.6512 6.63582 29.9716 5.86946 29.1992 5.20051C28.6305 4.70796 28.002 4.27853 27.3713 3.86477C26.1569 3.06796 24.8232 2.51297 23.4385 2.09825C22.6807 1.8713 21.891 1.75087 21.1154 1.58357C19.5778 1.25189 18.0171 1.28726 16.4606 1.32493C15.9143 1.33816 15.3632 1.44628 14.8284 1.57147C14.1407 1.73248 13.4517 1.91322 12.7922 2.16215C12.2043 2.38407 11.6399 2.68305 11.0945 2.99867C10.5977 3.28616 10.1247 3.62167 9.67075 3.97406C9.35207 4.22145 9.08767 4.53776 8.79089 4.81458C7.55274 5.96946 6.68566 7.38069 6.02507 8.91757C5.67555 9.73073 5.39386 10.5807 5.3081 11.4727C5.25609 12.0136 5.16983 12.5695 5.24047 13.0997C5.35287 13.9436 5.31735 14.7836 5.30104 15.6224C5.28077 16.6654 5.04409 17.6746 4.3705 18.5059C3.82738 19.1762 3.21196 19.7874 2.64538 20.4394C2.38666 20.7371 2.15057 21.0585 1.93775 21.3907C1.78826 21.624 1.85099 21.7703 2.08653 21.9153C2.5111 22.1766 2.95522 22.411 3.35695 22.7036C4.04269 23.203 4.51482 23.8441 4.46297 24.7473C4.44702 25.0251 4.39832 25.3049 4.32844 25.5744C4.27203 25.7919 4.28937 25.913 4.52219 26.0114C4.73152 26.0999 4.94404 26.2347 5.0909 26.4046C5.31619 26.6652 5.25968 27.1525 5.02031 27.4251C4.92255 27.5365 4.81498 27.6395 4.70914 27.7435C4.58742 27.8631 4.60285 27.9522 4.75433 28.033C5.41901 28.388 5.81617 28.9528 6.02919 29.6631C6.11082 29.9353 5.99793 30.1713 5.8992 30.4066C5.77262 30.7083 5.61914 30.9987 5.49266 31.3005C5.24235 31.8976 5.57964 32.2183 6.11332 32.3285C6.62098 32.4333 7.14355 32.4641 7.6581 32.5377C8.77088 32.6968 9.89091 32.7655 11.011 32.7076C11.6273 32.6757 12.2445 32.5631 12.8493 32.4317C13.617 32.265 14.3325 31.9414 14.9746 31.4893C15.6073 31.0437 16.1957 30.5376 16.5525 29.8284C16.8355 29.266 17.1255 28.7026 17.3452 28.1146C17.4897 27.728 17.578 27.2974 17.5826 26.8853C17.6058 24.8153 17.5935 22.7449 17.5924 20.6746V20.6746C17.5922 20.4796 17.3888 20.3391 17.2048 20.4036C17.1991 20.4056 17.1934 20.4077 17.1878 20.4097C16.4058 20.6922 15.6162 20.7959 14.7815 20.6525C13.9509 20.5098 13.2558 20.1263 12.6163 19.6134C12.4672 19.4939 12.3437 19.3353 12.2317 19.1782C12.0281 18.8927 11.9166 18.8456 11.6151 18.9126C10.516 19.1571 9.43476 19.1138 8.43277 18.5652C7.23655 17.9103 6.43681 16.9172 6.18065 15.5599C5.94944 14.3346 6.16936 13.1841 6.8982 12.1455C7.3017 11.5705 7.80939 11.1246 8.43573 10.8147C8.61341 10.7268 8.68755 10.6034 8.68771 10.4091C8.68856 9.39032 9.00965 8.48907 9.65093 7.6904C10.2872 6.89803 11.095 6.3869 12.0819 6.19537C12.5582 6.10294 13.0561 6.11132 13.5448 6.09884C13.7786 6.09288 13.9542 6.02725 14.1275 5.86436C14.744 5.2849 15.4718 4.91195 16.3115 4.77569C16.5636 4.73476 16.8188 4.70206 17.0737 4.68994C17.7812 4.65629 18.4466 4.84361 19.0896 5.11618C19.2528 5.18534 19.4084 5.28541 19.5463 5.39736C19.6933 5.51665 19.8161 5.49063 19.9746 5.42529C20.4558 5.22698 20.9339 5.00931 21.433 4.86988C22.0736 4.6909 22.7253 4.75676 23.3737 4.90665C24.3359 5.12907 25.1013 5.66172 25.7116 6.40567C25.9889 6.74362 26.2391 7.14652 26.3568 7.56106C26.4831 8.00585 26.7601 8.09759 27.1246 8.14962C27.9186 8.26298 28.5687 8.65542 29.1601 9.17552C29.815 9.75138 30.2415 10.4678 30.458 11.3011C30.6043 11.8644 30.6652 12.4316 30.5646 13.0304C30.453 13.6944 30.1981 14.2799 29.8887 14.8605C29.8445 14.9434 29.8934 15.1217 29.9599 15.2104C30.392 15.7868 30.6462 16.4277 30.7215 17.1427C30.7458 17.3741 30.8192 17.607 30.8038 17.8347C30.7281 18.953 30.3733 19.9477 29.5828 20.7903C28.9088 21.5087 28.0893 21.8955 27.1567 22.1047C27.1491 22.1064 27.141 22.1101 27.1338 22.1089C26.5725 22.0153 26.4095 22.497 26.104 22.7953C25.7845 23.1073 25.4239 23.3844 25.0531 23.6353C24.1662 24.2354 23.1522 24.2661 22.1419 24.1683C21.2887 24.0857 20.5536 23.6867 19.9267 23.0983C19.5321 22.7279 19.1639 22.3375 18.9431 21.832V21.832C18.9184 21.7754 18.8278 21.8052 18.8229 21.8668C18.8174 21.9381 18.8132 21.9978 18.8131 22.0576C18.8118 23.4638 18.7967 24.8703 18.8179 26.2762C18.8309 27.1368 18.6994 27.9629 18.4291 28.7777C18.0466 29.9305 17.4602 30.9548 16.5852 31.8016C15.7993 32.5622 14.8681 33.0947 13.8407 33.452C13.0074 33.7417 12.1552 33.9521 11.2607 33.945C11.0147 33.9431 10.766 34.038 10.5222 34.024C9.90293 33.9882 9.2858 33.9156 8.66775 33.8585C8.5901 33.8513 8.51176 33.8514 8.43417 33.8437C7.85528 33.7866 7.27363 33.7481 6.69862 33.6641C6.25476 33.5993 5.8109 33.5046 5.38202 33.3739C4.68382 33.1613 4.15519 32.5332 4.17607 31.7536C4.18969 31.2447 4.31734 30.7859 4.53557 30.3413C4.80976 29.7828 4.73052 29.5013 4.20001 29.1613C3.91891 28.9811 3.62511 28.819 3.47402 28.4888C3.29354 28.0944 3.26996 27.7018 3.47026 27.3192C3.57817 27.1131 3.5805 26.9685 3.39492 26.8122C3.05811 26.5287 3.03425 26.1377 3.07451 25.739C3.09317 25.5541 3.11821 25.3618 3.1866 25.1914C3.4246 24.5984 3.01609 24.019 2.63447 23.748C2.19653 23.437 1.73196 23.1635 1.27921 22.8733C0.868892 22.6103 0.57895 22.2431 0.567263 21.7556C0.560303 21.4654 0.65257 21.1421 0.794479 20.8859C1.03019 20.4603 1.3095 20.0487 1.62859 19.6817C2.17029 19.0588 2.76284 18.4803 3.32295 17.873C3.64988 17.5185 3.78615 17.0665 3.90318 16.6108C4.13896 15.6928 4.11244 14.7554 4.08354 13.8216C4.07162 13.4364 3.97869 13.0541 3.93041 12.6696C3.91911 12.5796 3.93491 12.485 3.94668 12.3936C3.95757 12.3091 3.99758 12.2254 3.99418 12.1426C3.96571 11.4473 4.13621 10.7821 4.30157 10.1179C4.53211 9.19201 4.85596 8.29753 5.29555 7.44989C5.72679 6.61836 6.21896 5.82304 6.81812 5.09995C7.18028 4.66289 7.52821 4.20829 7.93325 3.81364C9.08802 2.68848 10.408 1.79442 11.8973 1.1704C12.7601 0.808874 13.6501 0.527231 14.5755 0.353694C15.3032 0.217252 16.0278 0.0989351 16.7703 0.0875121C17.2436 0.0802326 17.6342 0.00159426 18.1892 0.00604094C18.5244 0.00872646 18.7116 0.0256461 19.0465 0.0467724V0.0467724C19.4376 0.0714395 19.8267 0.118563 20.2144 0.174925C20.9957 0.288482 22.3779 0.505696 23.1797 0.727232C23.7426 0.882753 24.2961 1.07239 24.8708 1.25319ZM18.6621 13.6102C18.6201 13.694 18.5693 13.7745 18.538 13.8621C18.4583 14.0852 18.3095 14.1756 18.0715 14.1593C17.8462 14.1438 17.612 14.1215 17.3942 14.1649C17.0952 14.2245 16.7879 14.3045 16.5198 14.4442C15.8262 14.8056 15.6729 15.497 15.5447 16.186C15.5078 16.3847 15.6882 16.5741 15.885 16.5844C16.0755 16.5944 16.184 16.4888 16.1821 16.2533C16.1792 15.8958 16.2872 15.5686 16.4804 15.284C16.5968 15.1125 16.7731 14.9399 16.9609 14.8671C17.3614 14.7119 17.7836 14.6508 18.2185 14.7839C18.6973 14.9304 18.8112 14.8593 18.9747 14.3822C18.9848 14.3527 18.9913 14.322 19.0011 14.2924C19.2137 13.6498 19.6566 13.2678 20.3178 13.1402C20.4978 13.1054 20.6965 13.0349 20.8609 13.0783C21.2533 13.1819 21.5516 13.1115 21.8207 12.7977C22.0654 12.5122 22.4035 12.3381 22.7726 12.2927C23.3594 12.2207 23.9254 12.304 24.4173 12.6746C24.5448 12.7707 24.6646 12.7449 24.7757 12.6412C24.9657 12.4639 24.9212 12.2504 24.6381 12.1041C24.0173 11.7834 23.3837 11.4695 22.659 11.7191C22.2882 11.8468 21.9017 11.9827 21.5888 12.2075C21.3427 12.3844 21.1235 12.4962 20.8278 12.4697C20.7194 12.4599 20.6087 12.4607 20.5001 12.4695C19.7075 12.5336 19.1043 12.9107 18.6621 13.6102ZM27.6605 17.2457C27.4737 17.1924 27.2868 17.1391 27.0999 17.0859C26.5274 16.9231 26.0226 16.4233 26.1213 15.6644C26.1483 15.4573 26.2231 15.3833 26.4259 15.3732C26.7663 15.3562 27.1168 15.3572 27.4428 15.2725C28.1965 15.0769 28.5742 14.6582 28.7381 13.9256C28.7884 13.7008 28.6903 13.5205 28.5343 13.5203C28.3052 13.5201 28.3034 13.6957 28.2752 13.8642C28.2488 14.0218 28.217 14.1943 28.1317 14.3233C27.7869 14.8454 27.2454 14.9996 26.6672 14.9795C26.3243 14.9675 25.9867 14.8318 25.6447 14.7619C25.2571 14.6827 24.8636 14.5408 24.479 14.5588C23.8178 14.5898 23.2485 14.893 22.8426 15.4353C22.6958 15.6314 22.5818 15.8577 22.489 16.085C22.4854 16.0939 22.4841 16.1038 22.4847 16.1144C22.4927 16.2609 22.7468 16.3342 22.8362 16.2177V16.2177C22.9446 16.0764 23.025 15.9139 23.1199 15.762C23.444 15.2433 24.1823 14.9075 24.7786 15.0155C25.0232 15.0599 25.2625 15.1338 25.5072 15.1771C25.6745 15.2068 25.7146 15.2631 25.6848 15.4433C25.5931 15.9991 25.691 16.4984 26.1151 16.9264C26.4719 17.2866 26.8924 17.4927 27.3673 17.6111C27.5769 17.6633 27.7944 17.6949 28.0099 17.706C28.0835 17.7098 28.204 17.6369 28.2257 17.5729C28.246 17.5129 28.1837 17.3759 28.1229 17.3477C27.9948 17.2882 27.844 17.2778 27.6605 17.2457ZM20.5857 19.2207C20.3428 19.1802 20.094 19.1889 19.8548 19.1305C19.7933 19.1155 19.7321 19.0993 19.6717 19.0807C19.4906 19.0251 19.324 18.9996 19.2442 19.2174C19.1701 19.4196 19.282 19.5631 19.4559 19.6244C19.9861 19.8116 20.5235 19.9726 21.0958 19.8106C21.2795 19.7586 21.4208 19.7995 21.5362 19.9739C21.8853 20.502 22.0426 21.088 22.0943 21.709C22.1168 21.9786 22.2144 22.0662 22.4659 22.0268C22.663 21.996 22.7424 21.8521 22.6923 21.6251C22.6756 21.5494 22.6637 21.4717 22.6591 21.3944C22.6229 20.7883 22.4224 20.2377 22.0918 19.7338C21.921 19.4734 21.9079 19.4356 22.1426 19.2225C22.4863 18.9105 22.6651 18.5091 22.7959 18.0807C22.8491 17.9066 22.7616 17.7719 22.6009 17.704C22.4392 17.6357 22.3329 17.7287 22.2607 17.8652C22.2282 17.9267 22.2003 17.9928 22.184 18.0602C22.0413 18.6512 21.2382 19.3293 20.5857 19.2207V19.2207ZM11.1167 16.0928C11.3767 15.923 11.5844 15.6846 11.7551 15.4252V15.4252C11.8591 15.2672 11.9422 15.3099 12.0428 15.4331C12.3079 15.7578 12.5466 16.1158 12.8606 16.385C13.1233 16.6103 13.4714 16.7428 13.7958 16.8841C13.8006 16.8862 13.8057 16.8876 13.8111 16.8885C13.9715 16.9153 14.066 16.568 13.9119 16.5157V16.5157C13.3011 16.3083 12.8311 15.9317 12.5041 15.382C12.2933 15.0276 12.0757 14.6672 12.0648 14.2378C12.0426 13.3562 11.2869 12.6202 10.5163 12.3838C10.383 12.3429 10.2439 12.2985 10.1074 12.2984C10.0234 12.2983 9.9092 12.3606 9.86673 12.4304C9.84164 12.4716 9.91064 12.6066 9.97227 12.6547C10.0457 12.7119 10.1551 12.7265 10.2513 12.7502C10.6288 12.8432 10.9752 12.9931 11.2361 13.294C11.6235 13.7405 11.66 14.2772 11.5645 14.8177C11.5003 15.1815 11.2979 15.48 10.9692 15.7026C10.6638 15.9094 10.332 15.9796 9.9863 16.0364C9.84083 16.0603 9.69791 16.1289 9.7555 16.2842C9.78701 16.3691 9.95926 16.4571 10.0625 16.4509C10.449 16.4277 10.7956 16.3026 11.1167 16.0928ZM13.3799 9.26467C13.9662 9.40929 14.5473 9.42536 15.1276 9.22173C15.1864 9.20111 15.3275 9.26589 15.353 9.32464C15.4878 9.63485 15.6621 9.94779 15.703 10.2747C15.7886 10.9595 15.7005 11.6416 15.4771 12.301C15.4267 12.4498 15.4062 12.607 15.5953 12.6731C15.7867 12.74 15.7992 12.5556 15.8626 12.4517C15.8864 12.4129 15.8976 12.3648 15.9073 12.3193C15.9765 11.9932 16.0409 11.6659 16.1126 11.3402C16.2703 10.6239 16.221 9.93577 15.8609 9.28134C15.6603 8.91681 15.6757 8.9207 15.9618 8.61173C16.2912 8.25599 16.5049 7.83204 16.5768 7.35216C16.5789 7.33837 16.5774 7.32404 16.5731 7.3093C16.5311 7.16358 16.2684 7.1346 16.2001 7.27001V7.27001C16.1239 7.42115 16.0781 7.58793 16.0231 7.74941C15.7742 8.48094 15.0684 8.8979 14.3522 8.91217C13.8601 8.92196 13.3938 8.83844 12.9302 8.68893V8.68893C12.79 8.64371 12.6591 8.89625 12.7632 9.00059C12.7699 9.00739 12.7772 9.01327 12.7852 9.01809C12.956 9.12146 13.1545 9.17892 13.3799 9.26467ZM24.33 9.96473C24.3988 10.0012 24.4755 10.0186 24.5464 10.0508V10.0508C25.0722 10.29 25.6084 10.264 26.1439 10.0999C26.31 10.049 26.5341 9.98372 26.4699 9.74943C26.3993 9.49162 26.2032 9.68633 26.0599 9.68823C25.612 9.69417 25.1456 9.77734 24.7204 9.68067C24.0633 9.53127 23.6732 9.01366 23.4151 8.40975C23.3541 8.26711 23.2953 8.16213 23.1173 8.17571C22.7461 8.20404 22.3706 8.267 22.004 8.23479C21.7052 8.20853 21.3743 8.12529 21.1344 7.95748C20.8304 7.74472 20.5546 7.46035 20.4582 7.06028C20.4259 6.92632 20.3152 6.79627 20.1682 6.87485C20.0928 6.91514 20.0256 7.09339 20.0518 7.17985C20.1678 7.56279 20.3507 7.91515 20.6892 8.15731C21.054 8.41834 21.4428 8.6331 21.9001 8.66733C22.2003 8.68979 22.5082 8.71831 22.8022 8.67426C23.0056 8.64379 23.1117 8.67554 23.1916 8.85169C23.4235 9.36323 23.8259 9.69762 24.33 9.96473Z" fill="url(#paint0_linear_108775_3093)"/>
<path d="M28.1142 39.87C28.1064 39.8443 28.1044 39.8367 28.1023 39.8292C27.9759 39.3904 27.9919 39.3794 28.4344 39.2693C29.1898 39.0812 29.9424 38.8812 30.6944 38.6798C31.4163 38.4864 32.1356 38.2829 32.8571 38.0878C33.0997 38.0222 33.2035 38.0721 33.2794 38.3168C33.3947 38.6885 33.4997 39.064 33.5915 39.4422C33.6589 39.7197 33.417 40.1027 33.1308 40.2095C32.6919 40.3734 32.6997 40.371 32.8376 40.8169C32.9388 41.1441 33.032 41.4757 33.094 41.8117C33.113 41.9144 33.0356 42.1199 32.9692 42.1352C32.8401 42.1651 32.6743 42.1194 32.55 42.0545C32.4795 42.0176 32.4488 41.8842 32.4216 41.7883C32.3175 41.4212 32.2287 41.0498 32.117 40.6852C32.0992 40.6271 31.9815 40.5474 31.93 40.5599C31.4385 40.6793 30.9516 40.8175 30.4627 40.9479C30.2919 40.9934 30.2417 41.083 30.2964 41.2599C30.4068 41.6166 30.4985 41.9792 30.5972 42.3396C30.6668 42.594 30.5985 42.7777 30.4169 42.8278C30.1807 42.8929 30.0317 42.8071 29.9509 42.5401C29.8337 42.1528 29.724 41.7632 29.6166 41.3731C29.5756 41.2242 29.5093 41.1747 29.3457 41.2181C29.2064 41.2551 29.0486 41.2592 28.9053 41.2369C28.645 41.1963 28.4371 41.0711 28.364 40.7893C28.2859 40.4881 28.2016 40.1884 28.1142 39.87Z" fill="url(#paint1_linear_108775_3093)"/>
<path d="M18.6706 13.595C19.104 12.9108 19.7072 12.5337 20.4998 12.4696C20.6084 12.4608 20.719 12.46 20.8274 12.4697C21.1232 12.4963 21.3423 12.3844 21.5885 12.2076C21.9014 11.9828 22.2879 11.8468 22.6587 11.7191C23.3834 11.4696 24.017 11.7835 24.6377 12.1042C24.9209 12.2505 24.9654 12.464 24.7753 12.6413C24.6643 12.745 24.5445 12.7708 24.4169 12.6747C23.925 12.3041 23.3591 12.2208 22.7723 12.2928C22.4032 12.3382 22.0651 12.5123 21.8203 12.7977C21.5513 13.1115 21.253 13.182 20.8606 13.0784C20.6962 13.0349 20.4975 13.1055 20.3175 13.1402C19.6563 13.2679 19.2134 13.6498 19.0008 14.2925C18.991 14.3221 18.9845 14.3528 18.9744 14.3823C18.8109 14.8594 18.697 14.9305 18.2182 14.784C17.7833 14.6509 17.361 14.712 16.9606 14.8672C16.7727 14.9399 16.5965 15.1125 16.4801 15.2841C16.2869 15.5687 16.1789 15.8959 16.1817 16.2534C16.1836 16.4889 16.0751 16.5944 15.8847 16.5845C15.6879 16.5742 15.5074 16.3848 15.5444 16.1861C15.6726 15.4971 15.8259 14.8057 16.5195 14.4443C16.7876 14.3046 17.0949 14.2246 17.3939 14.165C17.6117 14.1216 17.8458 14.1439 18.0712 14.1594C18.3092 14.1757 18.458 14.0853 18.5377 13.8622C18.5689 13.7746 18.6198 13.6941 18.6706 13.595Z" fill="url(#paint2_linear_108775_3093)"/>
<path d="M27.6813 17.2466C27.8438 17.2779 27.9947 17.2884 28.1227 17.3478C28.1835 17.3761 28.2459 17.5131 28.2256 17.573C28.2038 17.6371 28.0834 17.71 28.0098 17.7062C27.7943 17.695 27.5767 17.6635 27.3671 17.6113C26.8922 17.4929 26.4717 17.2868 26.115 16.9266C25.6909 16.4986 25.593 15.9992 25.6847 15.4435C25.7144 15.2633 25.6744 15.207 25.5071 15.1773C25.2623 15.1339 25.0231 15.06 24.7785 15.0157C24.1822 14.9076 23.4439 15.2435 23.1197 15.7622C23.0248 15.9141 22.9444 16.0766 22.836 16.2179C22.7843 16.2853 22.6826 16.3144 22.6035 16.3609C22.5618 16.2676 22.4622 16.1506 22.4889 16.0852C22.5816 15.8579 22.6957 15.6316 22.8425 15.4355C23.2484 14.8932 23.8176 14.5899 24.4788 14.559C24.8635 14.5409 25.2569 14.6829 25.6445 14.7621C25.9866 14.832 26.3242 14.9677 26.6671 14.9796C27.2453 14.9998 27.7867 14.8456 28.1315 14.3235C28.2168 14.1945 28.2486 14.022 28.275 13.8644C28.3032 13.6958 28.305 13.5203 28.5341 13.5205C28.6901 13.5207 28.7882 13.701 28.7379 13.9258C28.574 14.6584 28.1963 15.0771 27.4426 15.2727C27.1166 15.3573 26.7662 15.3564 26.4257 15.3734C26.223 15.3835 26.1481 15.4575 26.1212 15.6646C26.0225 16.4235 26.5272 16.9233 27.0998 17.0861C27.2867 17.1393 27.4735 17.1926 27.6813 17.2466Z" fill="url(#paint3_linear_108775_3093)"/>
<path d="M20.2416 19.1719C20.3721 19.1741 20.479 19.2031 20.5854 19.2208C21.238 19.3295 22.041 18.6513 22.1838 18.0603C22.2001 17.993 22.228 17.9268 22.2605 17.8653C22.3327 17.7288 22.439 17.6359 22.6006 17.7041C22.7614 17.772 22.8488 17.9067 22.7957 18.0808C22.6649 18.5093 22.486 18.9106 22.1423 19.2226C21.9076 19.4357 21.9208 19.4735 22.0916 19.7339C22.4221 20.2378 22.6227 20.7884 22.6589 21.3945C22.6635 21.4718 22.6754 21.5495 22.6921 21.6252C22.7421 21.8522 22.6627 21.9961 22.4656 22.0269C22.2141 22.0663 22.1165 21.9788 22.0941 21.7091C22.0424 21.0881 21.8851 20.5021 21.536 19.974C21.4206 19.7996 21.2792 19.7588 21.0956 19.8107C20.5232 19.9727 19.9858 19.8117 19.4557 19.6245C19.2818 19.5632 19.1698 19.4198 19.2439 19.2175C19.3238 18.9997 19.4903 19.0252 19.6715 19.0809C19.8496 19.1356 20.0387 19.1274 20.2416 19.1719Z" fill="url(#paint4_linear_108775_3093)"/>
<path d="M11.4735 15.8181C11.0623 16.188 10.6011 16.4186 10.0622 16.4509C9.95901 16.457 9.78676 16.3691 9.75525 16.2841C9.69766 16.1289 9.84058 16.0602 9.98605 16.0364C10.3317 15.9796 10.6636 15.9094 10.9689 15.7026C11.2976 15.4799 11.5001 15.1815 11.5643 14.8177C11.6597 14.2772 11.6232 13.7404 11.2359 13.2939C10.9749 12.9931 10.6286 12.8432 10.2511 12.7502C10.1549 12.7265 10.0454 12.7119 9.97202 12.6546C9.9104 12.6066 9.84139 12.4716 9.86648 12.4303C9.90895 12.3606 10.0232 12.2982 10.1071 12.2983C10.2436 12.2985 10.3827 12.3428 10.516 12.3837C11.2866 12.6202 12.0423 13.3561 12.0646 14.2378C12.0754 14.6671 12.2931 15.0275 12.5039 15.382C12.8309 15.9317 13.3008 16.3083 13.9117 16.5157C13.9933 16.5434 14.0381 16.6794 14.1 16.7653C13.9969 16.8085 13.8664 16.9149 13.7956 16.8841C13.4712 16.7428 13.123 16.6103 12.8603 16.385C12.5464 16.1158 12.3076 15.7577 12.0425 15.4331C11.9419 15.3099 11.8588 15.2672 11.7549 15.4251C11.6693 15.5551 11.5753 15.6796 11.4735 15.8181Z" fill="url(#paint5_linear_108775_3093)"/>
<path d="M13.3606 9.25993C13.1543 9.179 12.9558 9.12154 12.785 9.01818C12.7104 8.973 12.6925 8.83391 12.6489 8.73747C12.7433 8.71924 12.8498 8.66317 12.93 8.68901C13.3936 8.83852 13.8599 8.92205 14.352 8.91225C15.0682 8.89799 15.774 8.48103 16.0229 7.7495C16.0779 7.58802 16.1237 7.42123 16.1999 7.2701C16.241 7.18865 16.3376 7.13518 16.4091 7.06909C16.4683 7.16398 16.5893 7.26813 16.5766 7.35224C16.5047 7.83213 16.291 8.25607 15.9616 8.61181C15.6755 8.92079 15.6601 8.9169 15.8607 9.28142C16.2208 9.93585 16.2701 10.624 16.1124 11.3403C16.0407 11.666 15.9763 11.9932 15.9071 12.3194C15.8974 12.3649 15.8862 12.413 15.8624 12.4518C15.799 12.5557 15.7865 12.7401 15.5951 12.6732C15.406 12.607 15.4265 12.4499 15.4769 12.3011C15.7003 11.6417 15.7884 10.9596 15.7028 10.2748C15.6619 9.94787 15.4876 9.63493 15.3528 9.32473C15.3273 9.26597 15.1862 9.20119 15.1274 9.22181C14.5471 9.42544 13.966 9.40937 13.3606 9.25993Z" fill="url(#paint6_linear_108775_3093)"/>
<path d="M24.4166 10.0125C23.8813 9.74226 23.4392 9.39801 23.1915 8.85171C23.1116 8.67557 23.0055 8.64381 22.8021 8.67429C22.5081 8.71833 22.2002 8.68982 21.9 8.66735C21.4427 8.63313 21.0539 8.41837 20.6891 8.15734C20.3506 7.91517 20.1677 7.56282 20.0517 7.17988C20.0255 7.09341 20.0927 6.91517 20.1681 6.87488C20.3151 6.79629 20.4258 6.92634 20.4581 7.0603C20.5545 7.46038 20.8303 7.74474 21.1343 7.9575C21.3742 8.12532 21.7051 8.20856 22.0039 8.23481C22.3705 8.26702 22.746 8.20406 23.1172 8.17574C23.2952 8.16215 23.354 8.26714 23.415 8.40978C23.6731 9.01368 24.0632 9.5313 24.7203 9.6807C25.1455 9.77737 25.6119 9.69419 26.0598 9.68825C26.2031 9.68635 26.3992 9.49164 26.4698 9.74946C26.534 9.98375 26.3099 10.049 26.1438 10.0999C25.6083 10.264 25.0721 10.29 24.5463 10.0508C24.5112 10.0349 24.4716 10.0289 24.4166 10.0125Z" fill="url(#paint7_linear_108775_3093)"/>
</g>
<path d="M39.837 36.938V19.438H45.437C47.3037 19.438 48.912 19.813 50.262 20.563C51.6287 21.313 52.687 22.3463 53.437 23.663C54.187 24.9797 54.562 26.488 54.562 28.188C54.562 29.888 54.187 31.3963 53.437 32.713C52.687 34.0297 51.6287 35.063 50.262 35.813C48.912 36.563 47.3037 36.938 45.437 36.938H39.837ZM42.237 34.813H45.462C46.762 34.813 47.912 34.5463 48.912 34.013C49.9287 33.4797 50.7287 32.7213 51.312 31.738C51.8953 30.738 52.187 29.5547 52.187 28.188C52.187 26.8047 51.8953 25.6213 51.312 24.638C50.7287 23.6547 49.9287 22.8963 48.912 22.363C47.912 21.8297 46.762 21.563 45.462 21.563H42.237V34.813ZM57.3628 36.938V27.813C57.3628 26.6797 57.6795 25.7963 58.3128 25.163C58.9628 24.513 59.8545 24.188 60.9878 24.188H63.6128V26.163H61.4128C60.8628 26.163 60.4295 26.3213 60.1128 26.638C59.8128 26.9547 59.6628 27.3963 59.6628 27.963V36.938H57.3628ZM66.5136 37.188C66.0636 37.188 65.6719 37.0297 65.3386 36.713C65.0219 36.3797 64.8636 35.988 64.8636 35.538C64.8636 35.088 65.0219 34.7047 65.3386 34.388C65.6719 34.0547 66.0636 33.888 66.5136 33.888C66.9636 33.888 67.3469 34.0547 67.6636 34.388C67.9969 34.7047 68.1636 35.088 68.1636 35.538C68.1636 35.838 68.0886 36.113 67.9386 36.363C67.8052 36.613 67.6136 36.813 67.3636 36.963C67.1136 37.113 66.8302 37.188 66.5136 37.188ZM70.9388 36.938V34.813H78.5138C79.0971 34.813 79.5971 34.6797 80.0138 34.413C80.4304 34.1297 80.7554 33.7713 80.9888 33.338C81.2221 32.9047 81.3388 32.4463 81.3388 31.963C81.3388 31.463 81.2221 31.0047 80.9888 30.588C80.7721 30.1547 80.4554 29.813 80.0388 29.563C79.6388 29.2963 79.1471 29.163 78.5638 29.163H75.2638C74.2804 29.163 73.4138 28.963 72.6638 28.563C71.9138 28.1463 71.3221 27.5797 70.8888 26.863C70.4721 26.1297 70.2638 25.3047 70.2638 24.388C70.2638 23.4547 70.4638 22.613 70.8638 21.863C71.2804 21.113 71.8554 20.5213 72.5888 20.088C73.3388 19.6547 74.1971 19.438 75.1638 19.438H82.5888V21.563H75.3888C74.8388 21.563 74.3554 21.6963 73.9388 21.963C73.5221 22.213 73.2054 22.5463 72.9888 22.963C72.7721 23.363 72.6638 23.7963 72.6638 24.263C72.6638 24.713 72.7638 25.1463 72.9638 25.563C73.1804 25.963 73.4888 26.288 73.8888 26.538C74.3054 26.788 74.7804 26.913 75.3138 26.913H78.6888C79.7388 26.913 80.6388 27.1213 81.3888 27.538C82.1388 27.9547 82.7138 28.5213 83.1138 29.238C83.5138 29.9547 83.7138 30.7713 83.7138 31.688C83.7138 32.7047 83.5054 33.613 83.0888 34.413C82.6888 35.1963 82.1138 35.813 81.3638 36.263C80.6138 36.713 79.7554 36.938 78.7888 36.938H70.9388ZM92.6126 37.238C91.3126 37.238 90.1626 36.9463 89.1626 36.363C88.1626 35.763 87.3709 34.963 86.7876 33.963C86.2043 32.9463 85.9126 31.813 85.9126 30.563C85.9126 29.313 86.2043 28.188 86.7876 27.188C87.3709 26.1713 88.1626 25.3713 89.1626 24.788C90.1626 24.188 91.3126 23.888 92.6126 23.888C93.9126 23.888 95.0626 24.188 96.0626 24.788C97.0793 25.3713 97.8709 26.163 98.4376 27.163C99.0209 28.163 99.3126 29.2963 99.3126 30.563C99.3126 31.813 99.0209 32.9463 98.4376 33.963C97.8709 34.963 97.0793 35.763 96.0626 36.363C95.0626 36.9463 93.9126 37.238 92.6126 37.238ZM92.6126 35.263C93.4959 35.263 94.2626 35.0547 94.9126 34.638C95.5626 34.2213 96.0709 33.663 96.4376 32.963C96.8043 32.2463 96.9876 31.4463 96.9876 30.563C96.9876 29.6797 96.8043 28.888 96.4376 28.188C96.0709 27.4713 95.5626 26.9047 94.9126 26.488C94.2626 26.0713 93.4959 25.863 92.6126 25.863C91.7459 25.863 90.9793 26.0713 90.3126 26.488C89.6626 26.9047 89.1543 27.4713 88.7876 28.188C88.4209 28.888 88.2376 29.6797 88.2376 30.563C88.2376 31.4463 88.4209 32.2463 88.7876 32.963C89.1543 33.663 89.6626 34.2213 90.3126 34.638C90.9793 35.0547 91.7459 35.263 92.6126 35.263ZM102.262 36.938V18.688H104.562V36.938H102.262ZM114.219 37.238C112.919 37.238 111.769 36.9463 110.769 36.363C109.769 35.763 108.977 34.963 108.394 33.963C107.811 32.9463 107.519 31.813 107.519 30.563C107.519 29.313 107.811 28.188 108.394 27.188C108.977 26.1713 109.769 25.3713 110.769 24.788C111.769 24.188 112.919 23.888 114.219 23.888C115.519 23.888 116.669 24.188 117.669 24.788C118.686 25.3713 119.477 26.163 120.044 27.163C120.627 28.163 120.919 29.2963 120.919 30.563C120.919 31.813 120.627 32.9463 120.044 33.963C119.477 34.963 118.686 35.763 117.669 36.363C116.669 36.9463 115.519 37.238 114.219 37.238ZM114.219 35.263C115.102 35.263 115.869 35.0547 116.519 34.638C117.169 34.2213 117.677 33.663 118.044 32.963C118.411 32.2463 118.594 31.4463 118.594 30.563C118.594 29.6797 118.411 28.888 118.044 28.188C117.677 27.4713 117.169 26.9047 116.519 26.488C115.869 26.0713 115.102 25.863 114.219 25.863C113.352 25.863 112.586 26.0713 111.919 26.488C111.269 26.9047 110.761 27.4713 110.394 28.188C110.027 28.888 109.844 29.6797 109.844 30.563C109.844 31.4463 110.027 32.2463 110.394 32.963C110.761 33.663 111.269 34.2213 111.919 34.638C112.586 35.0547 113.352 35.263 114.219 35.263ZM128.633 37.238C128.066 37.238 127.55 37.0797 127.083 36.763C126.633 36.4297 126.3 35.963 126.083 35.363L121.933 24.188H124.458L128.158 34.513C128.225 34.6797 128.3 34.7963 128.383 34.863C128.466 34.9297 128.558 34.963 128.658 34.963C128.775 34.963 128.866 34.9297 128.933 34.863C129.016 34.7963 129.091 34.6797 129.158 34.513L132.883 24.188H135.358L131.208 35.363C130.975 35.963 130.633 36.4297 130.183 36.763C129.733 37.0797 129.216 37.238 128.633 37.238ZM142.512 42.013V37.138C141.578 37.0047 140.745 36.6963 140.012 36.213C139.295 35.713 138.728 35.0713 138.312 34.288C137.895 33.488 137.687 32.5797 137.687 31.563V24.188H140.012V31.538C140.012 32.3047 140.178 32.9713 140.512 33.538C140.845 34.088 141.287 34.513 141.837 34.813C142.403 35.113 143.003 35.263 143.637 35.263C144.287 35.263 144.887 35.113 145.437 34.813C146.003 34.513 146.453 34.088 146.787 33.538C147.137 32.9713 147.312 32.3047 147.312 31.538V24.188H149.612V31.563C149.612 32.5797 149.403 33.4797 148.987 34.263C148.587 35.0463 148.02 35.688 147.287 36.188C146.57 36.6713 145.745 36.988 144.812 37.138V42.013H142.512ZM159.263 37.238C157.963 37.238 156.813 36.9463 155.813 36.363C154.813 35.763 154.021 34.963 153.438 33.963C152.855 32.9463 152.563 31.813 152.563 30.563C152.563 29.313 152.855 28.188 153.438 27.188C154.021 26.1713 154.813 25.3713 155.813 24.788C156.813 24.188 157.963 23.888 159.263 23.888C160.563 23.888 161.713 24.188 162.713 24.788C163.73 25.3713 164.521 26.163 165.088 27.163C165.671 28.163 165.963 29.2963 165.963 30.563C165.963 31.813 165.671 32.9463 165.088 33.963C164.521 34.963 163.73 35.763 162.713 36.363C161.713 36.9463 160.563 37.238 159.263 37.238ZM159.263 35.263C160.146 35.263 160.913 35.0547 161.563 34.638C162.213 34.2213 162.721 33.663 163.088 32.963C163.455 32.2463 163.638 31.4463 163.638 30.563C163.638 29.6797 163.455 28.888 163.088 28.188C162.721 27.4713 162.213 26.9047 161.563 26.488C160.913 26.0713 160.146 25.863 159.263 25.863C158.396 25.863 157.63 26.0713 156.963 26.488C156.313 26.9047 155.805 27.4713 155.438 28.188C155.071 28.888 154.888 29.6797 154.888 30.563C154.888 31.4463 155.071 32.2463 155.438 32.963C155.805 33.663 156.313 34.2213 156.963 34.638C157.63 35.0547 158.396 35.263 159.263 35.263ZM173.677 37.238C173.11 37.238 172.594 37.0797 172.127 36.763C171.677 36.4297 171.344 35.963 171.127 35.363L166.977 24.188H169.502L173.202 34.513C173.269 34.6797 173.344 34.7963 173.427 34.863C173.51 34.9297 173.602 34.963 173.702 34.963C173.819 34.963 173.91 34.9297 173.977 34.863C174.06 34.7963 174.135 34.6797 174.202 34.513L177.927 24.188H180.402L176.252 35.363C176.019 35.963 175.677 36.4297 175.227 36.763C174.777 37.0797 174.26 37.238 173.677 37.238Z" fill="url(#paint8_linear_108775_3093)"/>
<defs>
<linearGradient id="paint0_linear_108775_3093" x1="9.24963" y1="2.90618" x2="30.6715" y2="38.0155" gradientUnits="userSpaceOnUse">
<stop offset="0.100937" stop-color="#89BBD8"/>
<stop offset="1" stop-color="#17456F"/>
</linearGradient>
<linearGradient id="paint1_linear_108775_3093" x1="9.24963" y1="2.90618" x2="30.6715" y2="38.0155" gradientUnits="userSpaceOnUse">
<stop offset="0.100937" stop-color="#89BBD8"/>
<stop offset="1" stop-color="#17456F"/>
</linearGradient>
<linearGradient id="paint2_linear_108775_3093" x1="23.6445" y1="16.8131" x2="20.4685" y2="9.58231" gradientUnits="userSpaceOnUse">
<stop stop-color="#F0D295"/>
<stop offset="1" stop-color="white" stop-opacity="0"/>
</linearGradient>
<linearGradient id="paint3_linear_108775_3093" x1="27.9161" y1="17.8989" x2="24.8294" y2="12.3224" gradientUnits="userSpaceOnUse">
<stop stop-color="#F0D295"/>
<stop offset="1" stop-color="white" stop-opacity="0"/>
</linearGradient>
<linearGradient id="paint4_linear_108775_3093" x1="22.3328" y1="22.2362" x2="18.5433" y2="18.466" gradientUnits="userSpaceOnUse">
<stop stop-color="#F0D295"/>
<stop offset="1" stop-color="white" stop-opacity="0"/>
</linearGradient>
<linearGradient id="paint5_linear_108775_3093" x1="13.5193" y1="17.1008" x2="9.56049" y2="12.5666" gradientUnits="userSpaceOnUse">
<stop stop-color="#F0D295"/>
<stop offset="1" stop-color="white" stop-opacity="0"/>
</linearGradient>
<linearGradient id="paint6_linear_108775_3093" x1="16.0541" y1="12.9459" x2="11.2347" y2="8.87939" gradientUnits="userSpaceOnUse">
<stop stop-color="#F0D295"/>
<stop offset="1" stop-color="white" stop-opacity="0"/>
</linearGradient>
<linearGradient id="paint7_linear_108775_3093" x1="25.6236" y1="10.382" x2="23.4756" y2="5.44077" gradientUnits="userSpaceOnUse">
<stop stop-color="#F0D295"/>
<stop offset="1" stop-color="white" stop-opacity="0"/>
</linearGradient>
<linearGradient id="paint8_linear_108775_3093" x1="49.4994" y1="8.3755" x2="53.0872" y2="48.5934" gradientUnits="userSpaceOnUse">
<stop offset="0.100937" stop-color="#89BBD8"/>
<stop offset="1" stop-color="#17456F"/>
</linearGradient>
<clipPath id="clip0_108775_3093">
<rect width="33.7031" height="42.8906" fill="white" transform="translate(0.530762)"/>
</clipPath>
</defs>
</svg>
